<svg id="visual" viewBox="0 0 900 600" width="900" height="600" xmlns="http://www.w3.org/2000/svg" xmlns:xlink="http://www.w3.org/1999/xlink" version="1.1">
    <linearGradient id="gradW" x1="0%" y1="0%" x2="70%" y2="0%">
      <stop offset="0%" style="stop-color: #efefef; stop-opacity:1" />
      <stop offset="100%" style="stop-color: #d1d1d1; stop-opacity:1" />
    </linearGradient>
    <g transform="translate(465.757754839263 317.5256325939888)">
        <path d="M130.1 -217.1C158.5 -184.1 164.5 -131 184.2 -85C203.8 -39 237 -0.1 238.9 39.2C240.9 78.5 211.5 118.2 176.9 147.4C142.4 176.5 102.6 195.3 60.4 209.4C18.1 223.6 -26.6 233.2 -67.2 223.6C-107.7 214 -144.2 185.3 -181.8 151.9C-219.4 118.6 -258.2 80.6 -267.9 36.3C-277.7 -8 -258.5 -58.6 -234 -104.7C-209.6 -150.8 -179.9 -192.3 -140.1 -220.1C-100.2 -247.9 -50.1 -262 0.4 -262.5C50.8 -263.1 101.6 -250.2 130.1 -217.1" 
            fill="url(#gradW)">
        </path>
    </g>
</svg>